<svg xmlns="http://www.w3.org/2000/svg" viewBox="0 0 64 64" role="img" aria-label="Music note">
  <defs>
    <filter id="soft-glow" x="-40%" y="-40%" width="180%" height="180%">
      <feGaussianBlur stdDeviation="2.4" result="blur" />
      <feMerge>
        <feMergeNode in="blur" />
        <feMergeNode in="SourceGraphic" />
      </feMerge>
    </filter>
  </defs>
  <path
    fill="#eaf9ff"
    filter="url(#soft-glow)"
    d="M42.5 7.5a4 4 0 0 1 4 4v29.2c0 6.9-5.8 12.3-13 12.3-5.3 0-9.7-3.2-9.7-7.2s4.4-7.2 9.7-7.2c2 0 3.8.4 5.3 1.2V22.2l-19 4.2v20.5c0 6.9-5.8 12.3-13 12.3-5.3 0-9.7-3.2-9.7-7.2s4.4-7.2 9.7-7.2c2 0 3.8.4 5.3 1.2V18.3a4 4 0 0 1 3.1-3.9l26.3-5.8c.3-.1.7-.1 1-.1Z"
    transform="translate(4 -2)"
  />
</svg>
